<?xml version="1.0" encoding="UTF-8" standalone="no"?>
<!-- Created with Inkscape (http://www.inkscape.org/) -->

<svg
   xmlns:dc="http://purl.org/dc/elements/1.1/"
   xmlns:cc="http://creativecommons.org/ns#"
   xmlns:rdf="http://www.w3.org/1999/02/22-rdf-syntax-ns#"
   xmlns:svg="http://www.w3.org/2000/svg"
   xmlns="http://www.w3.org/2000/svg"
   xmlns:sodipodi="http://sodipodi.sourceforge.net/DTD/sodipodi-0.dtd"
   xmlns:inkscape="http://www.inkscape.org/namespaces/inkscape"
   width="106.16177mm"
   height="79.47197mm"
   viewBox="0 0 376.16374 281.59359"
   id="svg2"
   version="1.1"
   inkscape:version="0.91 r13725"
   sodipodi:docname="diggrtoolbox.svg">
  <defs
     id="defs4" />
  <sodipodi:namedview
     id="base"
     pagecolor="#ffffff"
     bordercolor="#666666"
     borderopacity="1.0"
     inkscape:pageopacity="0.0"
     inkscape:pageshadow="2"
     inkscape:zoom="0.24748737"
     inkscape:cx="-239.18169"
     inkscape:cy="421.24659"
     inkscape:document-units="px"
     inkscape:current-layer="layer1"
     showgrid="false"
     showguides="false"
     inkscape:window-width="1080"
     inkscape:window-height="1896"
     inkscape:window-x="1920"
     inkscape:window-y="24"
     inkscape:window-maximized="1"
     fit-margin-top="0"
     fit-margin-left="0"
     fit-margin-right="0"
     fit-margin-bottom="0" />
  <metadata
     id="metadata7">
    <rdf:RDF>
      <cc:Work
         rdf:about="">
        <dc:format>image/svg+xml</dc:format>
        <dc:type
           rdf:resource="http://purl.org/dc/dcmitype/StillImage" />
        <dc:title></dc:title>
      </cc:Work>
    </rdf:RDF>
  </metadata>
  <g
     inkscape:label="Layer 1"
     inkscape:groupmode="layer"
     id="layer1"
     transform="translate(-164.34215,-342.6896)">
    <g
       id="g4383"
       transform="translate(311.12698,1794.0309)">
      <path
         sodipodi:nodetypes="sssscccccsssssccssssccscsssssccssssscscccccsssssscsscccccscssssssscccscssscccssssssscssssssssssccsccsscsssssssccsssssccsssssssssscsccccssccsccscccssssssssssscsssscscscsccccc"
         inkscape:connector-curvature="0"
         id="path4325"
         d="m 103.0201,-1252.7362 c 1.64193,-0.6311 2.98532,-1.3854 2.98532,-1.6763 0,-0.7036 -0.95058,-0.6688 -2.36179,0.086 -0.63237,0.3385 -1.82305,0.7375 -2.64596,0.8867 -0.82292,0.1492 -1.768511,0.4973 -2.101327,0.7735 -12.5165,-2.1249 -22.212522,-11.6614 -34.457625,-17.0369 -1.37632,-0.6244 -2.809072,-1.141 -3.183893,-1.1478 -0.37482,-0.01 -1.371754,-0.6522 -2.215407,-1.4341 -3.538283,-3.2543 0,0 -2.671111,-3.7008 -0.257227,-0.9837 -15.892208,-25.1765 -29.495094,-45.6392 -4.31805,-6.4957 -8.212024,-12.509 -8.653278,-13.3629 -0.44126,-0.854 -2.898422,-8.4616 -5.460372,-16.9057 -13.7936688,-45.4642 -15.6862578,-51.1164 -19.1951418,-57.3268 -4.5108572,-7.9836 -4.2795702,-7.7796 -9.8406822,-8.6835 -2.644356,-0.4298 -5.831462,-0.8068 -7.082456,-0.8377 l -2.274534,-0.056 1.669553,-0.6064 c 1.193244,-0.4334 3.374841,-0.4202 7.646871,0.046 5.097988,0.5567 6.195388,0.8616 7.4596989,2.0729 1.7781403,1.7036 2.2229203,1.7366 4.6572913,0.3459 2.625364,-1.4998 5.61777,-1.9153 10.500296,-1.4578 5.5843758,0.6197 12.2014548,10.0204 10.2873318,12.9801 -1.610279,1.5858 -5.457688,2.5276 -11.1057828,2.7185 -3.195345,0.108 -5.81001896,0.3069 -5.81038896,0.4419 -3.75e-4,0.135 0.627488,2.0542 1.39523896,4.2648 0.767752,2.2105 4.738265,15.0223 8.823357,28.4704 4.0850968,13.4482 8.0463518,26.4019 8.8027828,28.7861 1.163777,3.668 3.811824,8.0414 17.214972,28.4317 8.711808,13.2532 17.349399,26.5277 19.19465,29.4989 4.774122,7.687 5.064148,7.9608 8.430589,7.9608 11.288889,0.8464 11.211043,2.5265 25.12889,10.2804 5.742528,3.1387 6.0865,3.2867 6.906771,2.9719 0.437041,-0.1677 5.4877,0.01 11.22369,0.3906 10.08245,0.6723 10.51672,0.6566 13.06616,-0.4711 1.45039,-0.6416 2.63708,-1.4368 2.63708,-1.7671 0,-0.9293 -1.0855,-0.7149 -2.8915,0.571 l -1.64547,1.1717 -4.9816,-1.9617 c -2.73987,-1.0789 -6.13307,-2.3499 -7.54044,-2.8244 -9.810397,-3.9884 -21.095078,-9.0509 -26.367716,-10.7279 -4.964245,-2.3043 -7.350009,-1.9332 1.96778,-4.2044 0.270095,-0.1669 1.584503,0.01 2.9209,0.3806 1.336397,0.3762 2.941581,0.7237 3.567078,0.7721 1.148873,0.089 3.832704,1.1223 5.402019,2.0798 3.878274,2.3661 21.408389,10.0278 23.803119,10.4034 0.82559,0.1295 4.5816,0.5538 8.34668,0.943 6.27035,0.648 7.07229,0.6209 9.54318,-0.3227 1.48367,-0.5667 2.84279,-1.2652 3.02026,-1.5524 0.67225,-1.0877 -0.33087,-1.0529 -2.56931,0.089 l -2.3197,1.1834 -5.55412,-2.3493 c -3.05476,-1.2922 -5.79721,-2.5745 -6.09432,-2.8497 -0.29711,-0.2751 -0.93682,-0.5101 -1.42158,-0.5222 -0.48476,-0.012 -3.952,-1.5126 -7.70499,-3.3345 -14.735514,-8.4479 -20.023277,-8.073 -23.538695,-8.9323 2.699201,-1.8072 6.577356,-2.3159 6.577356,-2.3159 2.087693,-0.1815 11.466599,1.9156 14.776059,3.9488 1.20191,0.7517 5.77862,3.1809 10.17047,5.3984 l 7.98518,4.0317 9.37382,0.4047 c 8.90456,0.3844 9.494,0.3434 11.77483,-0.8202 3.10825,-1.5858 3.1325,-2.611 0.0289,-1.2214 -2.37049,1.0613 -2.37492,1.061 -6.39713,-0.3769 -2.21375,-0.7913 -5.32911,-2.0494 -6.92303,-2.7957 -1.59392,-0.7463 -3.19667,-1.3569 -3.56167,-1.3569 -0.365,0 -1.10797,-0.2556 -1.65104,-0.568 -0.54307,-0.3124 -4.11149,-2.7894 -6.61347,-3.7493 -4.44033,-2.6402 -11.81192,-5.1839 -20.2886,-5.7593 3.20207,-1.7666 7.36333,-2.4012 10.36999,-2.2511 3.32262,1.445 -0.32207,-0.7776 23.22124,9.5983 l 7.67656,3.3832 7.67655,-0.048 c 6.09232,-0.038 8.05794,-0.2496 9.52461,-1.0248 1.01643,-0.5373 1.84806,-1.3115 1.84806,-1.7205 0,-0.5603 -0.27253,-0.5978 -1.1056,-0.1519 -1.53626,1.1359 -4.63318,2.3387 -5.57585,1.2779 -12.20418,-4.6295 -28.05013,-10.974 -33.31121,-12.3387 -3.03174,-0.7878 -6.03591,-1.4322 -6.67596,-1.4322 -1.77379,0 -0.79285,-0.961 1.40107,-1.3726 1.87088,-0.351 2.62003,-1.1998 2.62003,-2.9683 0,-0.768 -7.66866,-11.4077 -27.941331,-38.7664 -7.642322,-10.3136 -7.785322,-10.5615 -9.855284,-17.0863 -16.224822,-51.1427 -16.326636,-51.4372 -19.761569,-57.1651 -3.681681,-6.1393 -4.311965,-6.7051 -7.847405,-7.0448 l -2.950799,-0.2836 0.369891,-2.3385 c 0.20344,-1.2862 0.870237,-3.9648 1.481768,-5.9524 1.312878,-4.2672 1.437494,-8.7194 0.293329,-10.4798 -0.450198,-0.6927 -1.548804,-2.6625 -2.441348,-4.3772 -2.068885,-3.9748 -5.276154,-6.323 -9.143772,-6.6946 -4.124135,-0.3963 -6.255254,0.5716 -10.345515,4.6985 -3.469825,3.5009 -3.579259,3.6922 -2.112116,3.6922 0.905032,0 1.547315,-0.3125 1.547315,-0.753 0,-1.3332 4.274276,-5.051 6.993908,-6.0833 2.283104,-0.8667 2.928316,-0.9027 4.777995,-0.2668 1.176151,0.4043 2.945329,1.4643 3.931505,2.3554 2.12862,3.0526 1.248112,6.2217 -2.395449,3.0699 -2.040462,-1.7916 -5.035956,-2.6467 -7.28974,-2.081 -1.531899,0.3844 -4.880952,2.9983 -4.880952,3.8094 1.552804,-0.8353 3.234719,0.4998 4.817776,0.5181 2.113048,0 4.128183,1.427 4.390318,3.109 0.227579,1.4603 -1.55486,1.8538 -8.795835,1.9414 l -5.558393,0.067 -0.34118,-1.7059 c -0.187649,-0.9383 -0.562532,-1.7059 -0.833071,-1.7059 -0.270544,0 -1.228413,-1.5993 -2.128606,-3.554 -2.915896,-6.3316 -7.94219,-9.4453 -13.582205,-8.4139 -3.2627908,0.5966 -5.1483858,1.9513 -9.5328688,6.8489 -9.837236,10.9882 -19.6133322,17.1039 -32.5700972,20.3749 -5.314933,1.3417 -6.749823,1.9419 -8.349548,3.4924 -2.659977,2.5782 -4.107064,6.3 -4.538822,11.6736 -0.83314,10.8716 -2.89121,20.5292 -5.806817,30.7062 l -4.50249,2.683 c -2.47636,1.4756 -6.62449,3.887 -9.21806,5.3586 -13.36131,7.5816 -20.19637,22.5111 -18.35545,40.0928 1.26304,12.0627 4.98662,20.5305 13.3973,30.4666 2.70767,3.1987 4.77591,6.0539 4.5961,6.3449 -0.446,0.7216 7.78044,8.0092 9.39122,8.3194 7.904672,5.9816 10.035391,8.8966 24.399991,16.876 0.783197,0.2997 4.238732,1.0268 7.678965,1.6158 3.440233,0.5889 8.557935,1.4922 11.372671,2.0072 2.9572422,0.541 6.4900372,0.8143 8.3684952,0.6471 1.78793204,-0.159 4.21884,-0.057 5.402019,0.2264 1.183173,0.2835 5.733618,0.7822 10.1120958,1.1082 8.035139,0.5984 8.519501,0.6541 11.088355,1.2746 0.781871,0.1889 3.596607,0.4754 6.254969,0.6368 8.257378,0.5012 23.533858,2.7266 24.522877,3.5724 1.08282,0.926 2.066926,1.0686 13.006941,1.8853 9.34961,0.6979 21.323156,2.0283 25.663912,2.8515 4.055773,0.7692 5.448237,0.6669 8.880577,-0.6523 z m -78.6594,-153.8881 c 0.28948,-6.7173 -0.06089,-8.5083 2.987626,-6.6226 0,0 -0.465764,4.7357 -0.669074,7.1241 10.899614,-0.094 6.723587,0.3495 16.709078,-1.3224 0.311384,1.4665 0.228468,-0.6346 0.250173,1.9765 0.01033,1.243 -9.351383,1.3226 -15.332669,1.4553 l -4.061539,0.09 z m 28.200929,-4.2427 c 0.01137,-7.7524 0.09495,-7.9308 3.619626,-7.7258 4.43284,1.1653 5.063432,5.0034 8.068159,9.2411 1.139081,2.4088 1.751943,2.4822 -0.180717,2.9084 -0.860058,0.1897 -1.819627,0.4132 -2.132376,0.4967 -0.312748,0.083 -2.551743,0.1991 -4.975543,0.2568 -5.721366,0.3811 -4.407087,0.2252 -4.39912,-5.1772 z m -11.117522,-3.7442 c 0.33244,-0.3325 3.149121,5.8099 3.148439,6.8658 -2.45e-4,0.382 -0.774217,-0.941 -1.719935,-2.9401 -0.945723,-1.9991 -1.588546,-3.7657 -1.428504,-3.9257 z m -16.753287,-1.6033 c 0,-1.6478 4.448534,-3.0015 9.177484,-2.7925 5.175288,0.2287 7.037546,0.9823 6.107517,2.4715 -0.510804,0.8179 -1.264294,0.9659 -4.116844,0.8086 -1.920384,-0.1059 -5.026915,0.029 -6.903405,0.2999 -3.777047,0.5452 -4.264752,0.4552 -4.264752,-0.7875 z m -15.9572848,-16.8513 c -2.278492,-3.6422 0.09981,-8.3982 4.1898448,-8.3786 1.923091,0.01 2.527326,0.2971 3.651663,1.7401 0.561736,0.7209 0.478624,1.4981 -0.425623,3.9804 -1.267217,3.4786 -2.328509,4.5062 -4.654214,4.5062 -1.195183,0 -1.9010788,-0.4724 -2.7616708,-1.8481 z m 19.9377198,-0.4265 c 0,-1.0425 0.379091,-1.1372 4.549068,-1.1372 6.633492,0 5.919863,1.1882 -1.137267,1.8935 -1.094619,0.1095 -2.310074,0.2399 -2.701009,0.29 -0.390936,0.05 -0.710792,-0.4208 -0.710792,-1.0463 z m -16.018192,28.5856 c 4.889862,-1.4482 -1.108954,-7.8912 -3.0919578,-9.798 -5.895144,-2.5327 -7.784831,-1.7631 -14.918896,0.8853 -0.332934,1.035 -0.165558,1.3179 1.380267,3.993 4.26392004,4.1466 -0.684354,7.0604 16.6305868,4.9197 z"
         style="fill:#000000" />
      <text
         sodipodi:linespacing="125%"
         id="text4348"
         y="-1184.7877"
         x="-150.62483"
         style="font-style:normal;font-variant:normal;font-weight:normal;font-stretch:normal;font-size:40px;line-height:125%;font-family:'Ubuntu Condensed';-inkscape-font-specification:'Ubuntu Condensed, ';letter-spacing:0px;word-spacing:0px;fill:#000000;fill-opacity:1;stroke:none;stroke-width:1px;stroke-linecap:butt;stroke-linejoin:miter;stroke-opacity:1"
         xml:space="preserve"><tspan
           style="font-style:normal;font-variant:normal;font-weight:normal;font-stretch:normal;font-size:80px;font-family:'Ubuntu Condensed';-inkscape-font-specification:'Ubuntu Condensed, '"
           y="-1184.7877"
           x="-150.62483"
           id="tspan4350"
           sodipodi:role="line">diggrtoolbox</tspan></text>
    </g>
  </g>
</svg>
